<svg width="50" height="49" fill="none" xmlns="http://www.w3.org/2000/svg"><g clip-path="url(#a)" stroke="#fff" stroke-width="2.251" stroke-linecap="round" stroke-linejoin="round"><path d="M15.685 7.264a4.651 4.651 0 0 1 .024-3.536c.477-1.106 1.36-1.852 2.387-2.02 3.892-.65 9.694-.65 13.585 0 1.027.168 1.91.914 2.388 2.02.477 1.107.501 2.43.024 3.536M38.438 46.908H11.34c-5.92 0-10.433-5.316-9.526-11.186l2.555-16.646c.716-4.738 4.775-8.226 9.526-8.226h22.014c4.75 0 8.81 3.488 9.526 8.226l2.555 16.646c.907 5.894-3.63 11.186-9.527 11.186h-.024Z"/><path d="M33.257 25.258h-4.775v-4.81H21.32v4.81h-4.776v7.217h4.776v4.81h7.162v-4.81h4.775v-7.217Z"/></g><defs><clipPath id="a"><path fill="#fff" transform="translate(.5)" d="M0 0h48.778v48.11H0z"/></clipPath></defs></svg>