<svg width="28" height="28" viewBox="0 0 28 28" fill="none" xmlns="http://www.w3.org/2000/svg">
<path d="M15.1966 5.35705C14.5145 4.67493 14.5145 3.569 15.1966 2.88688L16.6616 1.42194C17.2242 0.859353 18.1363 0.859353 18.6989 1.42194L26.5781 9.30111C27.1406 9.8637 27.1406 10.7758 26.5781 11.3384L25.1131 12.8034C24.431 13.4855 23.3251 13.4855 22.6429 12.8034M15.1966 5.35705L5.35573 15.207M15.1966 5.35705L22.6429 12.8034M22.6429 12.8034L18.8773 16.56M5.35573 15.207L18.8773 16.56M5.35573 15.207L2.52807 18.0346C0.481717 20.0809 0.495139 23.4121 2.54149 25.4585C4.58785 27.5049 7.91906 27.5183 9.96542 25.4719L18.8773 16.56" stroke="white" stroke-width="2" stroke-linecap="round" stroke-linejoin="round"/>
</svg>
