<svg width="22" height="22" viewBox="0 0 22 22" fill="none" xmlns="http://www.w3.org/2000/svg">
<path d="M11.9205 4.35158C11.3958 3.82687 11.3958 2.97615 11.9205 2.45145L13.0474 1.32457C13.4801 0.89181 14.1818 0.89181 14.6145 1.32457L20.6754 7.38547C21.1082 7.81823 21.1082 8.51987 20.6754 8.95263L19.5486 10.0795C19.0238 10.6042 18.1731 10.6042 17.6484 10.0795M11.9205 4.35158L4.35056 11.9284M11.9205 4.35158L17.6484 10.0795M17.6484 10.0795L14.7518 12.9693M4.35056 11.9284L14.7518 12.9693M4.35056 11.9284L2.17544 14.1035C0.60132 15.6776 0.611645 18.2401 2.18576 19.8142C3.75988 21.3884 6.32236 21.3987 7.89648 19.8246L14.7518 12.9693" stroke="white" stroke-width="1.5" stroke-linecap="round" stroke-linejoin="round"/>
</svg>
