<svg width="46" height="46" fill="none" xmlns="http://www.w3.org/2000/svg"><path d="M24.933 9.038a2.822 2.822 0 0 1 0-3.99l2.366-2.366a2.327 2.327 0 0 1 3.291 0l12.728 12.727a2.327 2.327 0 0 1 0 3.292l-2.366 2.366a2.822 2.822 0 0 1-3.99 0M24.933 9.038 9.036 24.95M24.933 9.038l12.029 12.029m0 0-6.083 6.068M9.036 24.95l21.843 2.185M9.036 24.95l-4.568 4.567c-3.305 3.306-3.284 8.687.022 11.993 3.306 3.306 8.687 3.327 11.993.022l14.396-14.397" stroke="#fff" stroke-width="2.5" stroke-linecap="round" stroke-linejoin="round"/></svg>