<svg width="66" height="59" fill="none" xmlns="http://www.w3.org/2000/svg"><path d="M17.513 40.793c6.555 7.58 14.799 12.436 16.824 12.436 3.46 0 25.32-14.373 25.32-32.087C59.658 13.057 53.778 5 46.492 5c-5.486 0-10.184 3.734-12.154 9.04C32.367 8.733 27.67 5 22.183 5 14.897 5 9.017 13.057 9.017 21.142a23.3 23.3 0 0 0 .225 3.144c.028.28.084.534.14.814" stroke="#fff" stroke-width="2.191" stroke-linecap="round" stroke-linejoin="round"/><path d="M46.294 33.326H41.09c-.816 0-1.631-.645-1.828-1.431l-.788-3.257c-1.013-4.183-2.673-4.183-3.686 0l-2.279 9.46c-.984 4.1-2.644 4.1-3.657 0L24.97 22.63c-.985-3.986-2.645-3.986-3.658 0l-2.363 9.293c-.197.786-1.013 1.431-1.829 1.431H5.5" stroke="#fff" stroke-width="2.191" stroke-miterlimit="10" stroke-linecap="round"/></svg>