<svg width="53" height="49" fill="none" xmlns="http://www.w3.org/2000/svg"><path d="M7.413 34.914h2.365M7.413 27.754h2.365M42.911 27.6h2.365M42.911 20.44h2.365M7.413 20.594h2.365M42.889 34.914h2.365M21.603 32.527h2.365M21.603 25.367h2.365M28.698 32.527h2.365M28.698 25.367h2.365M21.603 18.207h2.365M28.698 18.207h2.365" stroke="#fff" stroke-width="2.746" stroke-linecap="round" stroke-linejoin="round"/><path d="M15.69 46.848V5.345A3.845 3.845 0 0 1 19.535 1.5h13.597a3.845 3.845 0 0 1 3.844 3.845v41.503M36.996 11.047h10.346a3.845 3.845 0 0 1 3.844 3.844v25.726a3.845 3.845 0 0 1-3.844 3.844h-5.616M15.69 11.047H5.345A3.844 3.844 0 0 0 1.5 14.89v25.726a3.844 3.844 0 0 0 3.845 3.844h5.615" stroke="#fff" stroke-width="1.93" stroke-linecap="round" stroke-linejoin="round"/><path d="M29.88 39.688h-7.094v7.16h7.095v-7.16Z" stroke="#fff" stroke-width="1.93" stroke-linecap="round" stroke-linejoin="round"/><path d="M36.976 46.848H15.69M26.333 6.273v7.16" stroke="#fff" stroke-width="2.746" stroke-linecap="round" stroke-linejoin="round"/><path d="M22.786 9.854h7.095" stroke="#fff" stroke-width="1.93" stroke-linecap="round" stroke-linejoin="round"/></svg>