<svg width="46" height="64" fill="none" xmlns="http://www.w3.org/2000/svg"><path d="M22.986 6.865v8.606M18.689 11.168h8.594M39.573 38.708c.2-.029.372-.058.573-.058 1.833 0 3.294 1.75 3.294 3.902 0 2.151-1.49 3.9-3.294 3.9-.63 0-1.203-.229-1.72-.573-2.434 8.004-10.398 16.064-15.469 16.064-5.07 0-13.006-8.06-15.47-16.064a2.88 2.88 0 0 1-1.718.574c-1.834 0-3.295-1.75-3.295-3.901 0-2.152 1.49-3.902 3.295-3.902.2 0 .4.03.573.058" stroke="#fff" stroke-width="2.5" stroke-linecap="round" stroke-linejoin="round"/><path d="M17.714 51.07c.946 1.55 2.951 2.61 5.271 2.61 2.321 0 4.326-1.06 5.272-2.61M43.383 34.92c.143-.401.258-.803.4-1.233.46-1.578.717-3.241.717-4.934 0-3.7-1.117-7.171-3.037-10.126M4.48 18.656C2.588 21.611 1.5 25.053 1.5 28.725c0 1.721.258 3.356.716 4.934M5.282 50.668c-2.149 1.95-2.98 3.47-2.521 4.532.458 1.12 2.062 1.148 2.52 2.267.46 1.09-.4 2.581-2.52 4.532M40.69 50.668c2.149 1.95 2.98 3.47 2.521 4.532-.458 1.12-2.062 1.148-2.52 2.267-.46 1.09.4 2.581 2.52 4.532M43.383 34.92a73.944 73.944 0 0 1-7.592.373c-22.202 0-23.577-9.352-23.577-9.352s.458 7.43-4.727 7.43" stroke="#fff" stroke-width="2.5" stroke-linecap="round" stroke-linejoin="round"/><path d="M15.824 39.08v2.869M30.148 39.08v2.869" stroke="#fff" stroke-width="2.5" stroke-miterlimit="10" stroke-linecap="round"/><path d="M37.31 21.18c-8.022-2.037-20.627-2.037-28.648 0" stroke="#fff" stroke-width="2.5" stroke-linecap="round" stroke-linejoin="round"/><path d="M9.35 19.717 5.395 9.706c-.401-1.033-.143-2.152.745-2.926C13.245.412 32.726.412 39.83 6.75c.859.775 1.145 1.922.744 2.926l-3.953 10.011" stroke="#fff" stroke-width="2.5" stroke-linecap="round" stroke-linejoin="round"/></svg>