<svg width="24" height="31" viewBox="0 0 24 31" fill="none" xmlns="http://www.w3.org/2000/svg">
<path d="M18.3 20.3613H17.278C16.928 20.3613 16.578 20.0383 16.494 19.645L16.158 18.0159C15.724 15.9232 15.024 15.9232 14.59 18.0159L13.61 22.7488C13.19 24.7993 12.476 24.7993 12.042 22.7488L10.39 15.0104C9.97003 13.016 9.25604 13.016 8.82204 15.0104L7.81404 19.6591C7.73004 20.0523 7.38003 20.3753 7.03003 20.3753H5.68604" stroke="white" stroke-width="1.5" stroke-miterlimit="10" stroke-linecap="round"/>
<path d="M17.6001 6.94893C17.6001 5.40404 16.3401 4.14004 14.8001 4.14004C14.8001 2.59515 13.5401 1.33115 12.0001 1.33115C10.4601 1.33115 9.20015 2.59515 9.20015 4.14004C7.66015 4.14004 6.40015 5.40404 6.40015 6.94893V8.35337H17.6001V6.94893Z" stroke="white" stroke-width="1.5" stroke-linecap="round" stroke-linejoin="round"/>
<path d="M19.7 5.54453C19.784 5.54453 21.184 5.54453 21.1 5.54453C21.87 5.54453 22.5 6.17653 22.5 6.94897V28.0156C22.5 28.7881 21.87 29.4201 21.1 29.4201H2.9C2.13 29.4201 1.5 28.7881 1.5 28.0156V6.94897C1.5 6.17653 2.13 5.54453 2.9 5.54453H4.3" stroke="white" stroke-width="1.5" stroke-linecap="round" stroke-linejoin="round"/>
</svg>
