<svg width="42" height="56" fill="none" xmlns="http://www.w3.org/2000/svg"><path d="M32.626 37.325h-1.923c-.66 0-1.318-.608-1.476-1.349l-.633-3.066c-.817-3.94-2.135-3.94-2.952 0l-1.845 8.91c-.79 3.86-2.134 3.86-2.951 0l-3.11-14.568c-.791-3.755-2.135-3.755-2.952 0l-1.898 8.75c-.158.741-.817 1.35-1.476 1.35H8.88" stroke="#fff" stroke-width="1.997" stroke-miterlimit="10" stroke-linecap="round"/><path d="M31.309 12.076c0-2.909-2.372-5.288-5.271-5.288 0-2.908-2.372-5.288-5.271-5.288-2.9 0-5.271 2.38-5.271 5.288-2.9 0-5.271 2.38-5.271 5.288v2.644h21.084v-2.644Z" stroke="#fff" stroke-width="1.997" stroke-linecap="round" stroke-linejoin="round"/><path d="M35.262 9.432h2.636c1.45 0 2.635 1.19 2.635 2.644v39.658a2.648 2.648 0 0 1-2.635 2.644H3.636A2.648 2.648 0 0 1 1 51.734V12.076a2.648 2.648 0 0 1 2.636-2.644H6.27" stroke="#fff" stroke-width="1.997" stroke-linecap="round" stroke-linejoin="round"/></svg>