<svg width="29" height="30" viewBox="0 0 29 30" fill="none" xmlns="http://www.w3.org/2000/svg">
<path d="M14.6111 8.15955C16.5989 8.15955 18.2103 6.5568 18.2103 4.57975C18.2103 2.6027 16.5989 1 14.6111 1C12.6234 1 11.012 2.6027 11.012 4.57975C11.012 6.5568 12.6234 8.15955 14.6111 8.15955Z" stroke="white" stroke-width="1.5" stroke-miterlimit="10" stroke-linecap="round" stroke-linejoin="round"/>
<path d="M14.6111 9.91797H11.7631C10.4173 9.91797 9.18107 10.6961 8.63337 11.9257L6.92769 15.6456C6.73991 16.0503 6.42694 16.3926 6.05138 16.6417L1.79498 19.2565C0.996907 19.739 0.762185 20.7818 1.26294 21.56C1.74804 22.3226 2.76518 22.5561 3.54761 22.0891L8.4456 19.132C8.83681 18.8985 9.14978 18.5717 9.35321 18.167L11.0119 15.023" stroke="white" stroke-width="1.5" stroke-miterlimit="10" stroke-linecap="round" stroke-linejoin="round"/>
<path d="M9.71285 17.4668V20.315C9.71285 20.9999 9.36858 21.638 8.78959 22.0115L5.01829 24.4862C3.84466 25.2644 3.54735 26.852 4.37672 27.9882C4.84618 28.6263 5.59731 28.9998 6.37973 28.9998H14.5952" stroke="white" stroke-width="1.5" stroke-miterlimit="10" stroke-linecap="round" stroke-linejoin="round"/>
<path d="M14.6111 9.91797H17.4591C18.8049 9.91797 20.0411 10.6961 20.5888 11.9257L22.2945 15.6456C22.4823 16.0503 22.7953 16.3926 23.1708 16.6417L27.4272 19.2565C28.2253 19.739 28.46 20.7818 27.9593 21.56C27.4742 22.3226 26.457 22.5561 25.6746 22.0891L20.7766 19.132C20.3854 18.8985 20.0724 18.5717 19.869 18.167L18.2102 15.023" stroke="white" stroke-width="1.5" stroke-miterlimit="10" stroke-linecap="round" stroke-linejoin="round"/>
<path d="M19.5091 17.4668V20.315C19.5091 20.9999 19.8533 21.638 20.4323 22.0115L24.2036 24.4862C25.3773 25.2644 25.6746 26.852 24.8452 27.9882C24.3757 28.6263 23.6246 28.9998 22.8422 28.9998H14.6267H11.763C10.5737 28.9998 9.58789 28.0349 9.58789 26.8364C9.58789 25.7002 10.4642 24.7664 11.6066 24.6886L18.2102 24.2217" stroke="white" stroke-width="1.5" stroke-miterlimit="10" stroke-linecap="round" stroke-linejoin="round"/>
<path d="M14.8769 22.0891C14.8143 22.0891 14.7673 22.0736 14.736 22.0269L13.1712 20.4705C12.7017 20.0035 12.7017 19.2253 13.1712 18.7584C13.4059 18.5249 13.7032 18.4004 14.0319 18.4004C14.3605 18.4004 14.6578 18.5249 14.8925 18.7584C15.1272 18.5249 15.4246 18.4004 15.7532 18.4004C16.0818 18.4004 16.3791 18.5249 16.6138 18.7584C16.8486 18.9918 16.9738 19.2875 16.9738 19.6144C16.9738 19.9257 16.8486 20.237 16.6138 20.4705L15.049 22.0269C14.9864 22.0736 14.9238 22.0891 14.8769 22.0891Z" fill="white"/>
</svg>
